<?xml version="1.0" standalone="no"?>
<!DOCTYPE svg PUBLIC "-//W3C//DTD SVG 20010904//EN"
 "http://www.w3.org/TR/2001/REC-SVG-20010904/DTD/svg10.dtd">
<svg version="1.0" xmlns="http://www.w3.org/2000/svg"
 width="2264.000000pt" height="2158.000000pt" viewBox="0 0 2264.000000 2158.000000"
 preserveAspectRatio="xMidYMid meet">

<g transform="translate(0.000000,2158.000000) scale(0.100000,-0.100000)"
fill="#000000" stroke="none">
<path d="M10865 21229 c-1261 -54 -2499 -314 -3645 -764 -315 -124 -533 -221
-855 -380 -761 -377 -1363 -758 -2005 -1270 -1190 -949 -2175 -2159 -2827
-3475 -64 -129 -125 -251 -135 -271 -10 -20 -18 -44 -18 -53 0 -9 -3 -16 -8
-16 -4 0 -13 -15 -21 -32 -7 -18 -24 -56 -37 -85 -13 -28 -24 -61 -24 -72 0
-12 -4 -21 -8 -21 -11 0 -32 -46 -32 -70 0 -11 -3 -20 -7 -20 -13 0 -33 -53
-33 -87 0 -22 -5 -33 -14 -33 -17 0 -36 -51 -36 -96 0 -22 -5 -34 -14 -34 -19
0 -26 -22 -26 -81 0 -42 -3 -49 -20 -49 -17 0 -20 -7 -20 -40 0 -27 -4 -40
-14 -40 -18 0 -26 -31 -26 -107 0 -60 -1 -63 -25 -63 -24 0 -25 -2 -25 -65 0
-58 -2 -65 -20 -65 -18 0 -20 -7 -20 -65 0 -58 -2 -65 -20 -65 -18 0 -20 -7
-20 -85 0 -78 -2 -85 -20 -85 -18 0 -20 -7 -20 -85 0 -84 0 -85 -25 -85 -25 0
-25 -1 -25 -85 0 -78 -2 -85 -20 -85 -18 0 -20 -7 -20 -85 0 -78 -2 -85 -20
-85 -19 0 -20 -7 -20 -105 0 -98 -1 -105 -20 -105 -19 0 -20 -7 -20 -110 l0
-110 -25 0 -25 0 0 -125 c0 -118 -1 -125 -20 -125 -19 0 -20 -7 -20 -170 0
-163 -1 -170 -20 -170 -19 0 -20 -7 -20 -190 0 -183 -1 -190 -20 -190 -20 0
-20 -7 -20 -915 0 -908 0 -915 20 -915 19 0 20 -7 20 -215 0 -208 1 -215 20
-215 19 0 20 -7 20 -150 0 -143 1 -150 20 -150 19 0 20 -7 20 -125 l0 -125 25
0 25 0 0 -130 c0 -123 1 -130 20 -130 18 0 20 -7 20 -85 0 -78 2 -85 20 -85
19 0 20 -7 20 -105 0 -98 1 -105 20 -105 18 0 20 -7 20 -85 0 -84 0 -85 25
-85 25 0 25 -1 25 -85 0 -78 2 -85 20 -85 18 0 20 -7 20 -65 0 -58 2 -65 20
-65 18 0 20 -7 20 -85 0 -78 2 -85 20 -85 18 0 20 -7 20 -65 0 -63 1 -65 25
-65 24 0 25 -3 25 -60 0 -53 2 -60 20 -60 18 0 20 -7 20 -65 0 -58 2 -65 20
-65 17 0 20 -7 20 -42 0 -57 9 -88 26 -88 9 0 14 -12 14 -35 0 -38 24 -95 40
-95 6 0 10 -16 10 -36 0 -27 5 -37 20 -41 16 -4 20 -14 20 -44 0 -38 17 -89
30 -89 4 0 10 -18 14 -40 4 -26 11 -40 21 -40 10 0 15 -10 15 -27 0 -16 6 -39
13 -53 36 -67 67 -136 87 -188 7 -17 16 -32 21 -32 5 0 9 -7 9 -14 0 -22 69
-156 80 -156 6 0 10 -10 10 -21 0 -36 202 -407 388 -713 561 -922 1295 -1784
2132 -2502 497 -426 1078 -839 1630 -1156 1397 -803 2881 -1283 4480 -1447
412 -43 665 -55 1150 -55 485 0 738 12 1150 55 1598 164 3083 644 4480 1447
541 311 1107 711 1595 1126 943 803 1772 1805 2339 2826 26 47 54 96 62 110 8
14 29 54 47 90 18 36 38 71 45 79 7 7 16 26 19 42 3 16 9 29 13 29 10 0 30 47
30 70 0 11 4 20 10 20 10 0 80 133 80 153 0 7 9 23 20 37 12 16 20 41 20 68 0
35 3 42 20 42 17 0 20 7 20 40 0 28 4 40 15 40 17 0 35 30 35 59 0 12 9 30 20
41 14 14 20 33 20 65 0 38 3 45 20 45 17 0 20 7 20 44 0 35 4 45 20 49 17 4
20 14 20 66 0 58 1 61 25 61 24 0 25 3 25 60 0 53 2 60 20 60 18 0 20 7 20 65
0 58 2 65 20 65 17 0 20 7 20 45 0 38 3 45 20 45 18 0 20 7 20 85 0 84 0 85
25 85 24 0 25 3 25 60 0 53 2 60 20 60 18 0 20 7 20 65 0 58 2 65 20 65 18 0
20 7 20 85 0 78 2 85 20 85 18 0 20 7 20 85 0 84 0 85 25 85 25 0 25 1 25 85
0 78 2 85 20 85 18 0 20 7 20 85 0 78 2 85 20 85 19 0 20 7 20 110 0 103 1
110 20 110 19 0 20 7 20 125 l0 125 25 0 25 0 0 130 c0 123 1 130 20 130 19 0
20 7 20 170 0 163 1 170 20 170 19 0 20 7 20 210 0 203 1 210 20 210 20 0 20
7 20 810 0 803 0 810 -20 810 -19 0 -20 7 -20 235 0 228 -1 235 -20 235 -19 0
-20 7 -20 145 0 138 -1 145 -20 145 -19 0 -20 7 -20 150 l0 150 -25 0 -25 0 0
105 c0 98 -1 105 -20 105 -19 0 -20 7 -20 110 0 103 -1 110 -20 110 -19 0 -20
7 -20 105 0 98 -1 105 -20 105 -18 0 -20 7 -20 85 0 84 0 85 -25 85 -25 0 -25
1 -25 85 0 78 -2 85 -20 85 -18 0 -20 7 -20 65 0 58 -2 65 -20 65 -18 0 -20 7
-20 85 0 78 -2 85 -20 85 -18 0 -20 7 -20 65 0 63 -1 65 -25 65 -24 0 -25 3
-25 60 0 53 -2 60 -20 60 -18 0 -20 7 -20 65 0 58 -2 65 -20 65 -17 0 -20 7
-20 49 0 59 -7 81 -26 81 -10 0 -14 12 -14 40 0 36 -2 40 -25 40 -24 0 -25 3
-25 61 0 52 -3 62 -20 66 -16 4 -20 14 -20 44 0 40 -17 89 -32 89 -4 0 -8 11
-8 25 0 14 -8 33 -18 43 -11 11 -22 35 -25 56 -3 20 -15 49 -26 65 -12 16 -21
35 -21 41 0 7 -9 29 -19 49 -10 20 -25 51 -31 69 -7 17 -16 32 -21 32 -5 0 -9
7 -9 14 0 22 -69 156 -80 156 -6 0 -10 9 -10 21 0 11 -30 77 -66 147 -361 689
-845 1393 -1364 1987 -716 818 -1581 1548 -2490 2100 -1066 647 -2183 1100
-3380 1369 -955 214 -1982 307 -2945 265z m7315 -7209 c0 -3653 0 -3660 -20
-3660 -19 0 -20 -7 -20 -170 l0 -170 -25 0 -25 0 0 -125 c0 -118 -1 -125 -20
-125 -19 0 -20 -7 -20 -105 0 -98 -1 -105 -20 -105 -18 0 -20 -7 -20 -85 0
-78 -2 -85 -20 -85 -18 0 -20 -7 -20 -85 0 -84 0 -85 -25 -85 -25 0 -25 -1
-25 -85 0 -78 -2 -85 -20 -85 -18 0 -20 -7 -20 -65 0 -58 -2 -65 -20 -65 -17
0 -20 -7 -20 -45 0 -38 -3 -45 -20 -45 -18 0 -20 -7 -20 -60 0 -57 -1 -60 -25
-60 -24 0 -25 -2 -25 -65 0 -58 -2 -65 -20 -65 -17 0 -20 -7 -20 -45 0 -38 -3
-45 -20 -45 -18 0 -20 -7 -20 -60 0 -53 -2 -60 -20 -60 -17 0 -20 -7 -20 -45
0 -41 -2 -45 -25 -45 -22 0 -25 -4 -25 -40 0 -33 -3 -40 -20 -40 -17 0 -20 -7
-20 -45 0 -38 -3 -45 -20 -45 -17 0 -20 -7 -20 -45 0 -38 -3 -45 -20 -45 -17
0 -20 -7 -20 -40 0 -36 -2 -40 -25 -40 -23 0 -25 -4 -25 -45 0 -38 -3 -45 -20
-45 -17 0 -20 -7 -20 -40 0 -33 -3 -40 -20 -40 -17 0 -20 -7 -20 -45 0 -38 -3
-45 -20 -45 -13 0 -20 -7 -20 -20 0 -15 -7 -20 -25 -20 -22 0 -25 -4 -25 -40
0 -33 -3 -40 -20 -40 -17 0 -20 -7 -20 -45 0 -38 -3 -45 -20 -45 -13 0 -20 -7
-20 -20 0 -13 -7 -20 -20 -20 -17 0 -20 -7 -20 -45 0 -41 -2 -45 -25 -45 -18
0 -25 -5 -25 -20 0 -13 -7 -20 -20 -20 -17 0 -20 -7 -20 -40 0 -33 -3 -40 -20
-40 -15 0 -20 -7 -20 -25 0 -18 -5 -25 -20 -25 -17 0 -20 -7 -20 -40 0 -36 -2
-40 -25 -40 -18 0 -25 -5 -25 -20 0 -13 -7 -20 -20 -20 -15 0 -20 -7 -20 -25
0 -18 -5 -25 -20 -25 -17 0 -20 -7 -20 -40 0 -33 -3 -40 -20 -40 -13 0 -20 -7
-20 -20 0 -15 -7 -20 -25 -20 -20 0 -25 -5 -25 -25 0 -18 -5 -25 -20 -25 -13
0 -20 -7 -20 -20 0 -13 -7 -20 -20 -20 -17 0 -20 -7 -20 -40 0 -36 -2 -40 -25
-40 -20 0 -25 -5 -25 -25 0 -18 -5 -25 -20 -25 -13 0 -20 -7 -20 -20 0 -13 -7
-20 -20 -20 -13 0 -20 -7 -20 -20 0 -13 -7 -20 -20 -20 -13 0 -20 -7 -20 -20
0 -15 -7 -20 -25 -20 -20 0 -25 -5 -25 -25 0 -18 -5 -25 -20 -25 -13 0 -20 -7
-20 -20 0 -13 -7 -20 -20 -20 -13 0 -20 -7 -20 -20 0 -13 -7 -20 -20 -20 -17
0 -20 -7 -20 -45 0 -41 -2 -45 -25 -45 -18 0 -25 -5 -25 -20 0 -13 -7 -20 -20
-20 -13 0 -20 -7 -20 -20 0 -17 -7 -20 -40 -20 -33 0 -40 -3 -40 -20 0 -15 -7
-20 -25 -20 -20 0 -25 -5 -25 -25 0 -18 -5 -25 -20 -25 -13 0 -20 -7 -20 -20
0 -13 -7 -20 -20 -20 -13 0 -20 -7 -20 -20 0 -13 -7 -20 -20 -20 -13 0 -20 -7
-20 -20 0 -15 -7 -20 -25 -20 -20 0 -25 -5 -25 -25 0 -18 -5 -25 -20 -25 -13
0 -20 -7 -20 -20 0 -13 -7 -20 -20 -20 -13 0 -20 -7 -20 -20 0 -17 -7 -20 -45
-20 -38 0 -45 -3 -45 -20 0 -13 -7 -20 -20 -20 -15 0 -20 -7 -20 -25 0 -18 -5
-25 -20 -25 -13 0 -20 -7 -20 -20 0 -13 -7 -20 -20 -20 -13 0 -20 -7 -20 -20
0 -17 -7 -20 -45 -20 -38 0 -45 -3 -45 -20 0 -13 -7 -20 -20 -20 -15 0 -20 -7
-20 -25 0 -18 -5 -25 -20 -25 -13 0 -20 -7 -20 -20 0 -17 -7 -20 -45 -20 -38
0 -45 -3 -45 -20 0 -13 -7 -20 -20 -20 -13 0 -20 -7 -20 -20 0 -17 -7 -20 -45
-20 -41 0 -45 -2 -45 -25 0 -18 -5 -25 -20 -25 -13 0 -20 -7 -20 -20 0 -17 -7
-20 -40 -20 -33 0 -40 -3 -40 -20 0 -15 -7 -20 -25 -20 -20 0 -25 -5 -25 -25
0 -22 -4 -25 -40 -25 -33 0 -40 -3 -40 -20 0 -13 -7 -20 -20 -20 -13 0 -20 -7
-20 -20 0 -17 -7 -20 -45 -20 -38 0 -45 -3 -45 -20 0 -17 -7 -20 -40 -20 -36
0 -40 -2 -40 -25 0 -23 -4 -25 -45 -25 -38 0 -45 -3 -45 -20 0 -13 -7 -20 -20
-20 -13 0 -20 -7 -20 -20 0 -17 -7 -20 -45 -20 -38 0 -45 -3 -45 -20 0 -17 -7
-20 -40 -20 -36 0 -40 -2 -40 -25 0 -23 -4 -25 -45 -25 -38 0 -45 -3 -45 -20
0 -18 -7 -20 -60 -20 -53 0 -60 -2 -60 -20 0 -17 -7 -20 -45 -20 -38 0 -45 -3
-45 -20 0 -17 -7 -20 -40 -20 -36 0 -40 -2 -40 -25 0 -24 -2 -25 -65 -25 -58
0 -65 -2 -65 -20 0 -17 -7 -20 -45 -20 -38 0 -45 -3 -45 -20 0 -18 -7 -20 -65
-20 -58 0 -65 -2 -65 -20 0 -18 -7 -20 -60 -20 -57 0 -60 -1 -60 -25 0 -24 -2
-25 -65 -25 -58 0 -65 -2 -65 -20 0 -18 -7 -20 -65 -20 -58 0 -65 -2 -65 -20
0 -18 -7 -20 -85 -20 -78 0 -85 -2 -85 -20 0 -18 -7 -20 -85 -20 -84 0 -85 0
-85 -25 l0 -25 -105 0 c-98 0 -105 -1 -105 -20 0 -19 -7 -20 -130 -20 -123 0
-130 -1 -130 -20 0 -19 -7 -20 -145 -20 -138 0 -145 -1 -145 -20 0 -20 -7 -20
-280 -20 l-280 0 0 -25 0 -25 -210 0 -210 0 0 25 0 25 -280 0 c-273 0 -280 0
-280 20 0 19 -7 20 -145 20 -138 0 -145 1 -145 20 0 19 -7 20 -110 20 -103 0
-110 1 -110 20 0 19 -7 20 -105 20 l-105 0 0 25 c0 25 -1 25 -85 25 -78 0 -85
2 -85 20 0 18 -7 20 -85 20 -78 0 -85 2 -85 20 0 18 -7 20 -65 20 -58 0 -65 2
-65 20 0 18 -7 20 -60 20 -57 0 -60 1 -60 25 0 24 -2 25 -65 25 -58 0 -65 2
-65 20 0 18 -7 20 -65 20 -58 0 -65 2 -65 20 0 18 -7 20 -65 20 -58 0 -65 2
-65 20 0 17 -7 20 -40 20 -36 0 -40 3 -40 25 0 23 -4 25 -45 25 -38 0 -45 3
-45 20 0 18 -7 20 -60 20 -53 0 -60 2 -60 20 0 17 -7 20 -45 20 -38 0 -45 3
-45 20 0 17 -7 20 -45 20 -41 0 -45 2 -45 25 0 23 -4 25 -40 25 -33 0 -40 3
-40 20 0 17 -7 20 -45 20 -38 0 -45 3 -45 20 0 17 -7 20 -40 20 -33 0 -40 3
-40 20 0 13 -7 20 -20 20 -15 0 -20 7 -20 25 0 23 -4 25 -45 25 -38 0 -45 3
-45 20 0 17 -7 20 -40 20 -33 0 -40 3 -40 20 0 15 -7 20 -25 20 -18 0 -25 5
-25 20 0 17 -7 20 -40 20 -36 0 -40 3 -40 25 0 23 -4 25 -45 25 -38 0 -45 3
-45 20 0 13 -7 20 -20 20 -13 0 -20 7 -20 20 0 17 -7 20 -40 20 -36 0 -40 3
-40 25 0 20 -5 25 -25 25 -18 0 -25 5 -25 20 0 13 -7 20 -20 20 -13 0 -20 7
-20 20 0 17 -7 20 -40 20 -33 0 -40 3 -40 20 0 15 -7 20 -25 20 -20 0 -25 5
-25 25 0 23 -4 25 -40 25 -33 0 -40 3 -40 20 0 13 -7 20 -20 20 -13 0 -20 7
-20 20 0 15 -7 20 -25 20 -18 0 -25 5 -25 20 0 13 -7 20 -20 20 -15 0 -20 7
-20 25 0 23 -4 25 -40 25 -33 0 -40 3 -40 20 0 15 -7 20 -25 20 -18 0 -25 5
-25 20 0 13 -7 20 -20 20 -13 0 -20 7 -20 20 0 13 -7 20 -20 20 -15 0 -20 7
-20 25 0 18 -5 25 -20 25 -13 0 -20 7 -20 20 0 15 -7 20 -25 20 -18 0 -25 5
-25 20 0 17 -7 20 -40 20 -33 0 -40 3 -40 20 0 13 -7 20 -20 20 -15 0 -20 7
-20 25 0 20 -5 25 -25 25 -18 0 -25 5 -25 20 0 13 -7 20 -20 20 -13 0 -20 7
-20 20 0 13 -7 20 -20 20 -13 0 -20 7 -20 20 0 13 -7 20 -20 20 -15 0 -20 7
-20 25 0 20 -5 25 -25 25 -18 0 -25 5 -25 20 0 13 -7 20 -20 20 -13 0 -20 7
-20 20 0 13 -7 20 -20 20 -17 0 -20 7 -20 45 0 38 -3 45 -20 45 -13 0 -20 7
-20 20 0 15 -7 20 -25 20 -18 0 -25 5 -25 20 0 13 -7 20 -20 20 -13 0 -20 7
-20 20 0 13 -7 20 -20 20 -15 0 -20 7 -20 25 0 18 -5 25 -20 25 -13 0 -20 7
-20 20 0 15 -7 20 -25 20 -22 0 -25 4 -25 40 0 33 -3 40 -20 40 -15 0 -20 7
-20 25 0 18 -5 25 -20 25 -13 0 -20 7 -20 20 0 13 -7 20 -20 20 -13 0 -20 7
-20 20 0 15 -7 20 -25 20 -23 0 -25 4 -25 45 0 38 -3 45 -20 45 -13 0 -20 7
-20 20 0 13 -7 20 -20 20 -17 0 -20 7 -20 40 0 33 -3 40 -20 40 -15 0 -20 7
-20 25 0 20 -5 25 -25 25 -18 0 -25 5 -25 20 0 13 -7 20 -20 20 -17 0 -20 7
-20 40 0 33 -3 40 -20 40 -15 0 -20 7 -20 25 0 18 -5 25 -20 25 -17 0 -20 7
-20 40 0 36 -2 40 -25 40 -23 0 -25 4 -25 45 0 38 -3 45 -20 45 -13 0 -20 7
-20 20 0 13 -7 20 -20 20 -17 0 -20 7 -20 40 0 36 -2 40 -25 40 -23 0 -25 4
-25 45 0 38 -3 45 -20 45 -13 0 -20 7 -20 20 0 13 -7 20 -20 20 -17 0 -20 7
-20 45 0 38 -3 45 -20 45 -17 0 -20 7 -20 40 0 36 -2 40 -25 40 -23 0 -25 4
-25 45 0 38 -3 45 -20 45 -17 0 -20 7 -20 40 0 33 -3 40 -20 40 -17 0 -20 7
-20 45 0 38 -3 45 -20 45 -18 0 -20 7 -20 65 0 63 -1 65 -25 65 -22 0 -25 4
-25 40 0 33 -3 40 -20 40 -17 0 -20 7 -20 45 0 38 -3 45 -20 45 -18 0 -20 7
-20 60 0 53 -2 60 -20 60 -18 0 -20 7 -20 65 0 63 -1 65 -25 65 -23 0 -25 4
-25 45 0 38 -3 45 -20 45 -18 0 -20 7 -20 85 0 78 -2 85 -20 85 -18 0 -20 7
-20 60 0 53 -2 60 -20 60 -18 0 -20 7 -20 85 0 84 0 85 -25 85 -25 0 -25 1
-25 85 0 78 -2 85 -20 85 -18 0 -20 7 -20 85 0 78 -2 85 -20 85 -19 0 -20 7
-20 130 0 123 -1 130 -20 130 -19 0 -20 7 -20 150 l0 150 -25 0 -25 0 0 255
c0 248 -1 255 -20 255 -20 0 -20 7 -20 275 0 268 0 275 20 275 20 0 20 7 20
275 l0 275 25 0 25 0 0 150 c0 143 1 150 20 150 19 0 20 7 20 105 0 98 1 105
20 105 19 0 20 7 20 110 0 103 1 110 20 110 18 0 20 7 20 85 0 84 0 85 25 85
24 0 25 3 25 60 0 53 2 60 20 60 18 0 20 7 20 85 0 78 2 85 20 85 18 0 20 7
20 65 0 58 2 65 20 65 18 0 20 7 20 65 0 63 1 65 25 65 23 0 25 4 25 40 0 33
3 40 20 40 18 0 20 7 20 65 0 58 2 65 20 65 17 0 20 7 20 45 0 38 3 45 20 45
18 0 20 7 20 65 0 63 1 65 25 65 23 0 25 4 25 40 0 33 3 40 20 40 17 0 20 7
20 45 0 38 3 45 20 45 17 0 20 7 20 40 0 33 3 40 20 40 17 0 20 7 20 45 0 41
2 45 25 45 23 0 25 4 25 40 0 33 3 40 20 40 17 0 20 7 20 45 0 38 3 45 20 45
17 0 20 7 20 40 0 33 3 40 20 40 13 0 20 7 20 20 0 15 7 20 25 20 23 0 25 4
25 45 0 38 3 45 20 45 17 0 20 7 20 40 0 33 3 40 20 40 15 0 20 7 20 25 0 20
5 25 25 25 23 0 25 4 25 40 0 33 3 40 20 40 13 0 20 7 20 20 0 13 7 20 20 20
17 0 20 7 20 45 0 38 3 45 20 45 13 0 20 7 20 20 0 15 7 20 25 20 23 0 25 4
25 45 0 38 3 45 20 45 13 0 20 7 20 20 0 13 7 20 20 20 13 0 20 7 20 20 0 13
7 20 20 20 17 0 20 7 20 45 0 41 2 45 25 45 18 0 25 5 25 20 0 13 7 20 20 20
13 0 20 7 20 20 0 13 7 20 20 20 17 0 20 7 20 45 0 38 3 45 20 45 13 0 20 7
20 20 0 15 7 20 25 20 18 0 25 5 25 20 0 13 7 20 20 20 13 0 20 7 20 20 0 13
7 20 20 20 15 0 20 7 20 25 0 18 5 25 20 25 13 0 20 7 20 20 0 15 7 20 25 20
23 0 25 4 25 40 0 33 3 40 20 40 15 0 20 7 20 25 0 18 5 25 20 25 13 0 20 7
20 20 0 13 7 20 20 20 13 0 20 7 20 20 0 15 7 20 25 20 18 0 25 5 25 20 0 13
7 20 20 20 15 0 20 7 20 25 0 18 5 25 20 25 13 0 20 7 20 20 0 13 7 20 20 20
13 0 20 7 20 20 0 15 7 20 25 20 18 0 25 5 25 20 0 13 7 20 20 20 15 0 20 7
20 25 0 18 5 25 20 25 13 0 20 7 20 20 0 17 7 20 45 20 38 0 45 3 45 20 0 13
7 20 20 20 13 0 20 7 20 20 0 13 7 20 20 20 15 0 20 7 20 25 0 18 5 25 20 25
13 0 20 7 20 20 0 15 7 20 25 20 18 0 25 5 25 20 0 13 7 20 20 20 13 0 20 7
20 20 0 17 7 20 40 20 36 0 40 3 40 25 0 20 5 25 25 25 18 0 25 5 25 20 0 13
7 20 20 20 13 0 20 7 20 20 0 17 7 20 40 20 36 0 40 3 40 25 0 20 5 25 25 25
18 0 25 5 25 20 0 13 7 20 20 20 13 0 20 7 20 20 0 17 7 20 40 20 33 0 40 3
40 20 0 15 7 20 25 20 20 0 25 5 25 25 0 23 4 25 40 25 33 0 40 3 40 20 0 13
7 20 20 20 13 0 20 7 20 20 0 17 7 20 45 20 38 0 45 3 45 20 0 13 7 20 20 20
15 0 20 7 20 25 0 23 4 25 45 25 38 0 45 3 45 20 0 17 7 20 40 20 33 0 40 3
40 20 0 17 7 20 45 20 38 0 45 3 45 20 0 13 7 20 20 20 15 0 20 7 20 25 0 23
4 25 40 25 33 0 40 3 40 20 0 17 7 20 45 20 38 0 45 3 45 20 0 17 7 20 40 20
33 0 40 3 40 20 0 17 7 20 45 20 41 0 45 2 45 25 0 23 4 25 45 25 38 0 45 3
45 20 0 18 7 20 60 20 53 0 60 2 60 20 0 17 7 20 45 20 38 0 45 3 45 20 0 17
7 20 40 20 36 0 40 3 40 25 0 24 2 25 65 25 58 0 65 2 65 20 0 18 7 20 65 20
58 0 65 2 65 20 0 18 7 20 65 20 58 0 65 2 65 20 0 18 7 20 60 20 57 0 60 1
60 25 0 24 2 25 65 25 58 0 65 2 65 20 0 18 7 20 85 20 78 0 85 2 85 20 0 18
7 20 85 20 78 0 85 2 85 20 0 18 7 20 85 20 84 0 85 0 85 25 l0 25 130 0 c123
0 130 1 130 20 0 19 7 20 170 20 163 0 170 1 170 20 0 20 7 20 3700 20 l3700
0 0 -3660z"/>
</g>
</svg>
