<?xml version="1.0" standalone="no"?>
<!DOCTYPE svg PUBLIC "-//W3C//DTD SVG 20010904//EN"
 "http://www.w3.org/TR/2001/REC-SVG-20010904/DTD/svg10.dtd">
<svg version="1.0" xmlns="http://www.w3.org/2000/svg"
 width="2264.000000pt" height="2158.000000pt" viewBox="0 0 2264.000000 2158.000000"
 preserveAspectRatio="xMidYMid meet">

<g transform="translate(0.000000,2158.000000) scale(0.100000,-0.100000)"
fill="#000000" stroke="none">
<path d="M10830 21229 c-1773 -78 -3509 -576 -5040 -1444 -1148 -651 -2180
-1514 -2991 -2501 -928 -1129 -1592 -2394 -1983 -3774 -322 -1140 -439 -2365
-340 -3555 111 -1333 499 -2665 1122 -3850 604 -1149 1400 -2162 2372 -3017
970 -853 2124 -1546 3352 -2014 898 -342 1883 -575 2843 -673 442 -45 649 -55
1165 -55 516 0 723 10 1165 55 1942 198 3806 905 5383 2040 851 614 1627 1369
2246 2189 183 243 283 384 428 605 726 1108 1233 2355 1483 3645 115 592 170
1123 182 1745 18 959 -110 1951 -373 2885 -742 2636 -2526 4886 -4974 6275
-1823 1034 -3929 1537 -6040 1444z m965 -19 c1606 -68 3140 -462 4559 -1172
1440 -720 2684 -1731 3672 -2988 1123 -1428 1874 -3217 2093 -4990 50 -398 70
-683 78 -1100 36 -1877 -465 -3731 -1455 -5390 -780 -1308 -1916 -2488 -3237
-3364 -1288 -855 -2793 -1443 -4340 -1696 -631 -104 -1153 -145 -1835 -145
-682 0 -1204 41 -1835 145 -1825 299 -3567 1054 -4999 2169 -1133 882 -2067
1962 -2743 3176 -1443 2588 -1690 5620 -683 8380 269 737 675 1539 1103 2180
859 1285 2041 2408 3382 3212 1872 1123 4052 1676 6240 1583z"/>
<path d="M14980 12584 c-266 -34 -474 -168 -579 -374 -37 -73 -42 -87 -62
-160 -18 -68 -39 -224 -39 -296 l0 -74 -172 -2 -173 -3 -3 -209 c-2 -145 1
-213 9 -222 9 -11 48 -14 175 -14 l164 0 2 -822 3 -823 322 -3 323 -2 2 822 3
823 225 5 225 5 0 220 0 220 -222 3 -223 2 -7 28 c-3 15 -1 72 6 127 26 209
118 287 319 271 48 -4 101 -8 117 -9 l30 -2 3 221 c2 169 -1 224 -10 231 -34
26 -326 51 -438 37z"/>
<path d="M3822 11003 l3 -1418 332 -3 333 -2 2 517 3 518 305 6 c325 6 367 12
520 71 189 73 339 203 437 376 93 165 134 415 102 625 -49 328 -225 550 -522
659 -171 62 -153 61 -865 65 l-652 4 2 -1418z m1123 912 c194 -51 299 -238
265 -475 -21 -146 -88 -243 -208 -298 -56 -26 -61 -26 -282 -27 l-225 0 -3
395 c-1 217 0 401 3 407 7 20 373 18 450 -2z"/>
<path d="M6760 11719 c-135 -15 -286 -47 -404 -87 -118 -40 -304 -129 -319
-153 -6 -10 18 -68 78 -192 69 -142 90 -178 103 -174 10 3 69 24 132 47 204
74 368 101 513 86 88 -10 162 -54 194 -116 18 -37 22 -61 23 -136 l0 -91 -217
-6 c-267 -6 -369 -24 -543 -93 -78 -31 -210 -125 -262 -187 -54 -65 -107 -165
-129 -242 -22 -77 -19 -296 5 -365 71 -209 228 -369 431 -438 208 -71 410 -53
629 54 37 19 72 34 77 34 5 0 9 -18 9 -40 l0 -40 325 0 325 0 0 800 c0 830 0
834 -43 950 -70 188 -241 324 -467 371 -112 23 -336 32 -460 18z m326 -1236
c11 -4 14 -49 14 -223 l0 -219 -27 -18 c-69 -46 -129 -63 -227 -63 -95 0 -146
16 -200 61 -100 84 -107 258 -16 362 46 51 129 94 208 107 55 8 220 4 248 -7z"/>
<path d="M10828 11720 c-359 -45 -589 -195 -684 -446 -24 -62 -27 -83 -27
-209 -1 -124 2 -147 23 -200 78 -202 217 -305 584 -434 265 -93 324 -125 358
-196 73 -149 -121 -261 -390 -226 -139 19 -264 54 -376 105 -31 14 -59 26 -61
26 -6 0 -189 -366 -199 -397 -6 -19 1 -26 56 -54 189 -96 482 -159 728 -159
260 1 474 64 642 191 166 124 248 292 248 505 0 252 -111 413 -370 537 -77 37
-116 51 -300 113 -142 48 -218 86 -259 128 -30 31 -35 42 -35 86 0 41 5 55 30
81 54 58 104 73 239 72 136 0 233 -20 384 -76 82 -31 92 -33 100 -18 35 65
171 397 167 407 -8 20 -148 77 -276 113 -175 48 -430 71 -582 51z"/>
<path d="M12820 11723 c-111 -9 -305 -48 -415 -84 -115 -38 -337 -138 -349
-158 -4 -5 12 -47 35 -93 114 -233 136 -273 149 -271 8 0 58 17 111 36 185 68
299 91 444 92 145 0 187 -10 241 -58 55 -47 64 -74 64 -185 l0 -99 -212 -6
c-287 -7 -403 -30 -588 -115 -58 -26 -142 -87 -192 -139 -182 -187 -227 -492
-107 -730 68 -136 165 -234 299 -301 229 -116 446 -111 719 14 41 19 75 34 77
34 1 0 4 -17 6 -37 l3 -38 325 0 325 0 0 805 c0 856 1 834 -48 955 -116 282
-425 414 -887 378z m266 -1240 c11 -4 14 -50 14 -228 l0 -223 -42 -22 c-106
-55 -255 -68 -345 -29 -83 35 -120 81 -142 174 -23 98 30 224 117 279 39 24
117 50 177 60 34 5 201 -3 221 -11z"/>
<path d="M16344 11715 c-257 -39 -474 -165 -640 -370 -106 -131 -187 -319
-220 -509 -24 -135 -15 -409 16 -531 125 -493 520 -776 1081 -775 118 1 262
15 354 35 155 33 281 76 388 133 48 25 93 52 99 59 14 18 -159 403 -182 403
-8 0 -28 -8 -45 -18 -49 -29 -184 -80 -275 -104 -103 -26 -348 -32 -415 -10
-166 55 -270 154 -319 304 -26 79 -39 149 -29 159 5 5 294 10 683 11 l675 3
-1 155 c-1 85 -7 182 -13 215 -80 398 -322 688 -669 801 -153 50 -329 64 -488
39z m293 -479 c68 -34 120 -90 158 -168 34 -69 62 -186 51 -213 -5 -13 -51
-15 -346 -15 -279 0 -342 2 -346 14 -7 18 30 163 56 219 27 57 80 119 127 148
87 54 211 60 300 15z"/>
<path d="M7790 11666 c0 -7 16 -49 36 -92 19 -44 41 -92 49 -109 19 -46 53
-120 75 -167 10 -24 124 -281 253 -573 129 -291 247 -557 262 -590 15 -33 33
-73 40 -90 13 -32 46 -104 76 -170 62 -138 79 -180 79 -199 0 -17 -142 -384
-205 -531 -26 -62 -55 -138 -55 -146 0 -10 589 -12 614 -3 9 3 16 12 16 20 0
8 9 33 19 57 11 23 99 245 197 492 266 676 634 1607 646 1635 14 33 29 70 38
95 4 11 12 31 18 45 59 142 129 330 124 334 -3 3 -148 6 -323 6 l-317 0 -20
-52 c-43 -112 -55 -144 -62 -168 -5 -14 -22 -63 -40 -110 -17 -47 -38 -105
-46 -130 -8 -25 -19 -54 -24 -65 -12 -28 -43 -115 -80 -220 -17 -49 -40 -112
-50 -140 -10 -27 -43 -116 -72 -198 -35 -98 -57 -146 -66 -145 -8 2 -40 68
-73 148 -33 80 -77 188 -99 240 -21 52 -59 145 -85 205 -25 61 -68 164 -95
230 -27 66 -75 183 -107 260 l-58 140 -333 3 c-278 2 -332 0 -332 -12z"/>
<path d="M18275 10360 c-3 -5 -19 -10 -36 -10 -16 0 -29 -4 -29 -10 0 -5 -9
-10 -20 -10 -11 0 -20 -4 -20 -8 0 -4 -14 -16 -30 -25 -77 -46 -141 -147 -166
-261 -15 -67 -16 -86 -5 -144 27 -141 111 -253 239 -313 62 -30 75 -32 169
-32 57 0 113 4 126 10 12 6 36 17 52 24 17 8 39 22 49 32 11 9 24 17 29 17 12
0 63 55 84 91 10 16 21 29 25 29 4 0 8 7 8 15 0 8 4 23 9 33 32 63 43 212 20
269 -41 102 -63 136 -118 187 -19 17 -40 37 -47 44 -7 6 -17 12 -23 12 -6 0
-11 5 -11 10 0 6 -9 10 -20 10 -11 0 -20 5 -20 10 0 6 -13 10 -30 10 -16 0
-30 5 -30 10 0 6 -40 10 -99 10 -56 0 -103 -4 -106 -10z"/>
</g>
</svg>
