<?xml version="1.0" standalone="no"?>
<!DOCTYPE svg PUBLIC "-//W3C//DTD SVG 20010904//EN"
 "http://www.w3.org/TR/2001/REC-SVG-20010904/DTD/svg10.dtd">
<svg version="1.0" xmlns="http://www.w3.org/2000/svg"
 width="2264.000000pt" height="2158.000000pt" viewBox="0 0 2264.000000 2158.000000"
 preserveAspectRatio="xMidYMid meet">

<g transform="translate(0.000000,2158.000000) scale(0.100000,-0.100000)"
fill="#000000" stroke="none">
<path d="M10830 21229 c-1773 -78 -3509 -576 -5040 -1444 -1148 -651 -2180
-1514 -2991 -2501 -928 -1129 -1592 -2394 -1983 -3774 -322 -1140 -439 -2365
-340 -3555 111 -1333 499 -2665 1122 -3850 604 -1149 1400 -2162 2372 -3017
970 -853 2124 -1546 3352 -2014 898 -342 1883 -575 2843 -673 442 -45 649 -55
1165 -55 516 0 723 10 1165 55 1942 198 3806 905 5383 2040 851 614 1627 1369
2246 2189 183 243 283 384 428 605 726 1108 1233 2355 1483 3645 115 592 170
1123 182 1745 18 959 -110 1951 -373 2885 -742 2636 -2526 4886 -4974 6275
-1823 1034 -3929 1537 -6040 1444z m925 -19 c849 -37 1597 -144 2360 -340
2214 -568 4154 -1763 5609 -3455 779 -907 1379 -1914 1811 -3039 910 -2376
883 -5000 -77 -7366 -792 -1951 -2153 -3606 -3943 -4795 -1156 -768 -2463
-1315 -3845 -1609 -1072 -228 -2183 -295 -3325 -200 -1239 103 -2485 428
-3650 952 -1412 635 -2667 1563 -3690 2727 -1090 1240 -1871 2742 -2260 4340
-508 2089 -328 4301 510 6275 609 1432 1465 2631 2640 3696 1290 1170 2896
2024 4650 2474 1028 264 2165 384 3210 340z"/>
</g>
</svg>
